<?xml version="1.0" encoding="UTF-8" standalone="no"?>
<!-- Created with Inkscape (http://www.inkscape.org/) -->

<svg
   width="136.72887mm"
   height="131.88962mm"
   viewBox="0 0 136.72887 131.88962"
   version="1.1"
   id="svg1"
   xml:space="preserve"
   inkscape:version="1.4.3 (0d15f75042, 2025-12-25)"
   sodipodi:docname="logo.svg"
   xmlns:inkscape="http://www.inkscape.org/namespaces/inkscape"
   xmlns:sodipodi="http://sodipodi.sourceforge.net/DTD/sodipodi-0.dtd"
   xmlns="http://www.w3.org/2000/svg"
   xmlns:svg="http://www.w3.org/2000/svg"><sodipodi:namedview
     id="namedview1"
     pagecolor="#505050"
     bordercolor="#ffffff"
     borderopacity="1"
     inkscape:showpageshadow="0"
     inkscape:pageopacity="0"
     inkscape:pagecheckerboard="1"
     inkscape:deskcolor="#505050"
     inkscape:document-units="mm"
     inkscape:zoom="0.62158618"
     inkscape:cx="192.25009"
     inkscape:cy="661.21161"
     inkscape:window-width="1122"
     inkscape:window-height="1463"
     inkscape:window-x="0"
     inkscape:window-y="0"
     inkscape:window-maximized="1"
     inkscape:current-layer="layer1" /><defs
     id="defs1" /><g
     inkscape:label="Layer 1"
     inkscape:groupmode="layer"
     id="layer1"
     transform="translate(-50.59054,-30.820234)"><path
       style="fill:#000000"
       d="m 127.52917,162.43561 c -2.4011,-0.10989 -6.2111,-0.39551 -8.46667,-0.63472 -2.70848,-0.28724 -7.55999,-0.47937 -14.2875,-0.56581 -10.819769,-0.13903 -19.576673,-0.65555 -22.621873,-1.33434 -2.391908,-0.53317 -5.813576,-2.12805 -7.677432,-3.57854 -4.271132,-3.32387 -5.879457,-7.4743 -5.611827,-14.48182 0.135735,-3.55404 0.267668,-4.3379 2.431039,-14.44351 0.805222,-3.76137 1.136037,-8.50423 0.703484,-10.08577 -0.692969,-2.53369 -2.790052,-3.79808 -6.306329,-3.80227 -4.876009,-0.006 -7.463256,2.03316 -7.477915,5.89319 -0.0042,1.10251 0.173002,1.88302 0.633991,2.79274 0.930421,1.8361 1.066966,2.90895 0.53837,4.23004 -0.539985,1.34956 -1.008743,1.63353 -2.696477,1.63353 -2.165058,0 -4.435993,-1.79467 -5.503333,-4.34918 -0.593937,-1.42149 -0.76822,-4.16262 -0.413195,-6.49873 0.577972,-3.80315 2.769345,-7.02839 6.133227,-9.02683 2.947352,-1.75099 4.586589,-2.16765 8.577648,-2.18025 3.042884,-0.01 3.638393,0.0651 5.163363,0.64791 4.758215,1.81845 8.192587,5.68732 9.021021,10.16229 0.500665,2.70446 0.15974,7.72431 -0.772678,11.37708 -1.636272,6.41015 -1.967063,8.80248 -1.843593,13.33312 0.0958,3.51534 0.203472,4.36225 0.724078,5.6954 1.217563,3.1179 4.325007,5.36419 7.807331,5.64372 l 1.739396,0.13962 -1.056886,-2.21947 c -1.674509,-3.51648 -2.197849,-6.158 -2.553053,-12.88632 -0.292155,-5.53403 0.591996,-14.25524 2.041208,-20.13435 0.802082,-3.25385 2.88074,-9.59908 4.10028,-12.51635 0.347961,-0.83236 0.632657,-1.68953 0.632657,-1.90483 0,-0.22124 -0.922554,-0.87142 -2.121628,-1.49525 -2.168041,-1.12794 -4.597269,-2.779965 -6.677216,-4.540929 l -1.166647,-0.987728 -1.830275,0.537445 c -2.623982,0.77051 -7.388072,0.974383 -9.635483,0.412338 -2.367684,-0.592123 -6.188813,-2.524676 -7.9375,-4.014424 -2.62081,-2.232731 -4.981094,-6.193232 -5.915318,-9.925764 -0.49418,-1.974413 -0.57871,-6.290423 -0.166078,-8.479796 0.319246,-1.693885 1.680934,-4.617892 2.997603,-6.436875 2.184798,-3.018309 7.027793,-6.227917 10.701915,-7.092503 1.03942,-0.244594 1.428263,-0.466163 1.508454,-0.859544 0.05942,-0.291501 0.300768,-1.542033 0.536324,-2.77896 1.627245,-8.544826 6.672589,-16.365065 13.355849,-20.701452 5.384165,-3.493478 10.080989,-5.119934 16.999478,-5.886724 3.24183,-0.359298 4.0198,-0.360137 7.14375,-0.0077 5.75831,0.649638 9.90391,1.81819 14.48594,4.083258 3.66109,1.809814 6.00643,3.449939 8.98992,6.286745 3.04644,2.896652 4.74314,5.059611 6.60753,8.423278 1.7656,3.185419 2.53811,5.152198 3.46716,8.827247 0.9141,3.615892 1.03948,7.480623 0.38382,11.830692 -0.63616,4.220684 -0.59866,4.478529 0.95948,6.597196 2.88373,3.921121 4.0814,7.491841 3.85844,11.503527 -0.4701,8.45849 -6.63844,14.841643 -16.99031,17.582013 -2.57509,0.68168 -5.21492,1.07482 -9.06198,1.34956 -2.77754,0.19836 -2.81765,0.24532 -1.85533,2.17218 1.65204,3.30789 8.08926,6.61717 15.28293,7.85673 3.3253,0.57299 7.95006,0.78794 9.92188,0.46115 0.87312,-0.1447 1.63408,-0.21878 1.69102,-0.16462 0.15647,0.14884 -1.46334,2.00147 -4.94758,5.6587 l -3.14183,3.29783 -2.48935,0.18342 c -1.82072,0.13415 -3.30661,0.45649 -5.53205,1.20008 -3.02856,1.01195 -3.06179,1.01656 -7.14375,0.99161 -3.64257,-0.0223 -4.36726,-0.10469 -6.48229,-0.73721 -4.32054,-1.29212 -8.88408,-3.95001 -12.26614,-7.14405 -1.02527,-0.96827 -1.13186,-1.0159 -0.95793,-0.42805 0.76141,2.57331 4.27798,6.60728 7.34718,8.4282 3.23104,1.91694 7.31828,3.14289 11.3125,3.39314 7.20532,0.45143 7.09361,-2.11878 13.87897,-2.14516 7.23515,-0.028 8.5848,4.82335 8.61602,4.93928 -0.30956,13.34614 -37.93542,13.78297 0.79312,12.96091 4.45538,-0.12393 6.6291,2.41122 6.46296,6.75072 -0.17128,2.66896 -1.15587,4.62921 -2.94179,5.85688 -2.68493,1.84568 -10.65799,1.8104 -21.0001,1.33707 z m -0.79375,-59.25704 c 2.4451,-0.31688 4.8468,-1.08461 7.27604,-2.32586 2.6009,-1.328958 6.07724,-4.813056 7.30023,-7.316521 0.8737,-1.788483 0.90185,-1.945386 0.90185,-5.027083 0,-3.039213 -0.0354,-3.244919 -0.79375,-4.615667 -0.43656,-0.789078 -1.44914,-2.158297 -2.25017,-3.042708 -1.99026,-2.197446 -2.64462,-3.164836 -2.64462,-3.909775 0,-0.347912 0.29137,-1.758282 0.64748,-3.134156 1.26348,-4.881531 1.43136,-9.310581 0.49551,-13.07319 -0.47457,-1.908033 -0.89383,-2.752252 -1.98278,-3.992498 -1.13738,-1.295403 -2.56502,-1.972359 -4.15953,-1.972359 -1.70309,0 -2.41352,0.286727 -3.56602,1.439232 -0.51811,0.51811 -1.03784,0.942018 -1.15494,0.942018 -0.11711,0 -1.0149,-0.58467 -1.99509,-1.299266 -2.52476,-1.840647 -4.39817,-2.436873 -8.16855,-2.599709 -3.82088,-0.165018 -6.11241,0.207702 -8.59638,1.398213 -3.65833,1.753356 -5.97852,4.264222 -7.01362,7.59 -0.60958,1.958589 -0.65594,6.474405 -0.0911,8.870249 0.72479,3.074086 3.13831,7.109738 5.37906,8.994307 1.56056,1.312507 2.17869,1.638057 3.55696,1.873345 l 1.10767,0.189093 -1.58507,1.713238 c -3.9299,4.247669 -4.69329,5.736892 -4.65825,9.08738 0.0261,2.494667 0.53981,3.549689 2.74303,5.633402 1.67939,1.588295 3.25952,2.439965 6.60904,3.562155 3.60507,1.20781 8.27071,1.5828 12.64296,1.01616 z m -9.49934,-27.441365 c -1.46166,-1.46166 -1.71218,-5.670543 -0.44908,-7.544857 1.1744,-1.742682 3.16806,-1.546074 4.16643,0.410876 0.44987,0.88183 0.5249,1.446151 0.44907,3.377571 -0.0837,2.132058 -0.15713,2.400721 -0.91141,3.335175 -1.09262,1.353597 -2.18171,1.494537 -3.25501,0.421235 z m 13.74715,0.127574 c -0.98636,-0.499181 -1.64939,-1.877557 -1.79887,-3.739674 -0.28772,-3.584403 1.61687,-5.969843 3.84607,-4.81708 2.13401,1.103542 2.47512,6.166554 0.54546,8.096215 -0.85465,0.854646 -1.56469,0.980773 -2.59266,0.460539 z M 78.511267,89.043407 c 2.3333,-1.04854 2.365007,-1.117022 1.500443,-3.240683 -0.631951,-1.552285 -0.747616,-2.257701 -0.847815,-5.170654 -0.106709,-3.10223 -0.05886,-3.556504 0.595806,-5.656239 l 0.711834,-2.2831 -0.807321,-0.832944 c -0.444027,-0.458119 -1.489787,-1.246561 -2.323911,-1.752094 -1.488365,-0.902043 -1.570946,-0.919149 -4.437299,-0.919149 -2.649073,0 -3.044233,0.06521 -4.248866,0.701198 -1.727935,0.91226 -3.688807,3.028581 -4.567553,4.929647 -0.576666,1.247551 -0.718081,1.993385 -0.80627,4.252347 -0.09756,2.499005 -0.0435,2.901146 0.61588,4.581806 1.109407,2.827693 3.386981,4.876327 6.615266,5.950307 0.685909,0.228187 1.989393,0.321974 3.704167,0.266517 2.214517,-0.07162 2.914779,-0.206428 4.295639,-0.826959 z m 75.713793,49.526843 c -1.69188,-1.13026 -2.90275,-3.908 -1.39462,-5.3859 2.57524,-2.52361 5.88441,-7.36868 9.38961,-7.77086 2.27347,-0.002 3.49728,1.60549 3.52464,4.62922 0.0136,1.50283 -0.1187,2.12649 -0.70162,3.30729 -1.7813,3.60833 -4.87847,5.82083 -8.14829,5.82083 -1.40046,0 -1.95867,-0.12558 -2.66972,-0.60058 z m -6.84504,-3.23588 c -0.92872,-2.85785 -2.66513,-5.0091 -5.00788,-6.20429 -0.59655,-0.30433 -1.08464,-0.65276 -1.08464,-0.77428 0,-0.12151 0.69315,-0.9823 1.54033,-1.91285 0.84718,-0.93055 2.66288,-2.95132 4.03489,-4.49059 1.37202,-1.53928 4.69784,-5.23022 7.39073,-8.20209 8.04888,-8.88274 7.7387,-8.42439 7.14837,-10.56277 -0.14061,-0.50932 -0.36672,-1.92502 -0.50248,-3.14599 -0.6161,-5.541137 1.04719,-8.772689 5.72019,-11.113573 2.26695,-1.135605 4.29018,-1.615436 6.81156,-1.615436 2.52396,0 3.31057,0.385983 3.31057,1.624472 0,0.664216 -0.50742,1.317281 -2.97656,3.830907 -1.63711,1.666606 -3.08661,3.317241 -3.22111,3.668079 -1.04716,2.731464 4.78894,8.768601 7.50525,7.763771 0.63315,-0.23422 3.33264,-2.48781 5.73356,-4.786498 1.08344,-1.037304 1.50342,-1.277641 2.11054,-1.207762 2.98399,0.343457 0.97053,9.0356 -3.13007,13.5126 -0.81883,0.89399 -2.0285,1.84668 -2.93962,2.31511 -1.32845,0.683 -1.83548,0.79523 -3.57187,0.79067 -1.11301,-0.003 -2.78618,-0.11555 -3.71814,-0.25026 -1.31389,-0.18993 -1.85492,-0.16198 -2.40877,0.12443 -1.12405,0.58127 -16.84259,15.28548 -20.68059,19.34605 -0.80831,0.85519 -1.52606,1.73348 -1.595,1.95176 -0.0742,0.23507 -0.26556,-0.0346 -0.46926,-0.66146 z"
       id="path1"
       sodipodi:nodetypes="sssssssscsssssssccssssscssssssscsssssssssssssssssssssssssscsssssssscssssssssssssssssssssssscsscssssssssssssssssssssscsssssssssssscsssscssssssssssssssssscssscc" /></g></svg>
